{
  "accessors": [
    {
      "bufferView": 2,
      "componentType": 5126,
      "count": 2402,
      "max": [
        0.79958897829055786,
        0.80000001192092896,
        0.79801100492477417
      ],
      "min": [
        -0.79958897829055786,
        -0.80000001192092896,
        -0.79801100492477417
      ],
      "type": "VEC3"
    },
    {
      "bufferView": 2,
      "byteOffset": 28824,
      "componentType": 5126,
      "count": 2402,
      "max": [
        0.99948626756668091,
        1,
        0.99751400947570801
      ],
      "min": [
        -0.99948626756668091,
        -1,
        -0.99751400947570801
      ],
      "type": "VEC3"
    },
    {
      "bufferView": 3,
      "componentType": 5126,
      "count": 2402,
      "max": [
        0.99911826848983765,
        0.03278103843331337,
        0.99999785423278809,
        -1
      ],
      "min": [
        -0.99911832809448242,
        -0.032660942524671555,
        -1,
        -1
      ],
      "type": "VEC4"
    },
    {
      "bufferView": 1,
      "componentType": 5126,
      "count": 2402,
      "max": [
        0.98000001907348633,
        1
      ],
      "min": [
        0,
        0
      ],
      "type": "VEC2"
    },
    {
      "bufferView": 0,
      "componentType": 5125,
      "count": 14400,
      "max": [
        2401
      ],
      "min": [
        0
      ],
      "type": "SCALAR"
    },
    {
      "bufferView": 2,
      "byteOffset": 57648,
      "componentType": 5126,
      "count": 5219,
      "max": [
        8.875,
        0.75517600774765015,
        4.3879499435424805
      ],
      "min": [
        -1.1305299997329712,
        -1.0255099534988403,
        -12
      ],
      "type": "VEC3"
    },
    {
      "bufferView": 2,
      "byteOffset": 120276,
      "componentType": 5126,
      "count": 5219,
      "max": [
        0.9997870922088623,
        0.99998921155929565,
        0.99979478120803833
      ],
      "min": [
        -0.99986809492111206,
        -0.99997174739837646,
        -0.99573814868927002
      ],
      "type": "VEC3"
    },
    {
      "bufferView": 1,
      "byteOffset": 19216,
      "componentType": 5126,
      "count": 5219,
      "max": [
        0,
        0
      ],
      "min": [
        0,
        0
      ],
      "type": "VEC2"
    },
    {
      "bufferView": 0,
      "byteOffset": 57600,
      "componentType": 5125,
      "count": 35541,
      "max": [
        5218
      ],
      "min": [
        0
      ],
      "type": "SCALAR"
    },
    {
      "bufferView": 2,
      "byteOffset": 182904,
      "componentType": 5126,
      "count": 1522,
      "max": [
        6.8998799324035645,
        0.15000000596046448,
        0.14987799525260925
      ],
      "min": [
        6.6001200675964355,
        -0.15000000596046448,
        -0.14987799525260925
      ],
      "type": "VEC3"
    },
    {
      "bufferView": 2,
      "byteOffset": 201168,
      "componentType": 5126,
      "count": 1522,
      "max": [
        0.99918901920318604,
        1,
        0.99918901920318604
      ],
      "min": [
        -0.99918901920318604,
        -1,
        -0.99918901920318604
      ],
      "type": "VEC3"
    },
    {
      "bufferView": 1,
      "byteOffset": 60968,
      "componentType": 5126,
      "count": 1522,
      "max": [
        0,
        0
      ],
      "min": [
        0,
        0
      ],
      "type": "VEC2"
    },
    {
      "bufferView": 0,
      "byteOffset": 199764,
      "componentType": 5125,
      "count": 9120,
      "max": [
        1521
      ],
      "min": [
        0
      ],
      "type": "SCALAR"
    },
    {
      "bufferView": 2,
      "byteOffset": 219432,
      "componentType": 5126,
      "count": 48432,
      "max": [
        12.001199722290039,
        5.8090000152587891,
        0.63005101680755615
      ],
      "min": [
        6.1255598068237305,
        -3.1962199211120605,
        -10.911399841308594
      ],
      "type": "VEC3"
    },
    {
      "bufferView": 2,
      "byteOffset": 800616,
      "componentType": 5126,
      "count": 48432,
      "max": [
        0.99986821413040161,
        0.99999362230300903,
        0.99999988079071045
      ],
      "min": [
        -0.99986821413040161,
        -0.99997997283935547,
        -0.99999988079071045
      ],
      "type": "VEC3"
    },
    {
      "bufferView": 0,
      "byteOffset": 236244,
      "componentType": 5125,
      "count": 288072,
      "max": [
        48431
      ],
      "min": [
        0
      ],
      "type": "SCALAR"
    },
    {
      "bufferView": 2,
      "byteOffset": 1381800,
      "componentType": 5126,
      "count": 61422,
      "max": [
        12.005900382995605,
        11.985300064086914,
        11.756199836730957
      ],
      "min": [
        -11.968899726867676,
        -11.974599838256836,
        -11.981399536132812
      ],
      "type": "VEC3"
    },
    {
      "bufferView": 2,
      "byteOffset": 2118864,
      "componentType": 5126,
      "count": 61422,
      "max": [
        0.99987578392028809,
        0.99999278783798218,
        0.99999266862869263
      ],
      "min": [
        -0.99987578392028809,
        -0.99999278783798218,
        -0.99999266862869263
      ],
      "type": "VEC3"
    },
    {
      "bufferView": 0,
      "byteOffset": 1388532,
      "componentType": 5125,
      "count": 360300,
      "max": [
        61421
      ],
      "min": [
        0
      ],
      "type": "SCALAR"
    }
  ],
  "asset": {
    "extras": {
      "author": "Ignazio Pillitteri (https://sketchfab.com/gnaz)",
      "license": "CC-BY-4.0 (http://creativecommons.org/licenses/by/4.0/)",
      "source": "https://sketchfab.com/3d-models/mhd-simulation-of-a-star-with-a-hot-jupiter-999e19c132414b0d820656b7949d6f13",
      "title": "MHD simulation of a star with a hot Jupiter"
    },
    "generator": "Sketchfab-6.33.0",
    "version": "2.0"
  },
  "bufferViews": [
    {
      "buffer": 0,
      "byteLength": 2829732,
      "byteOffset": 0,
      "name": "floatBufferViews",
      "target": 34963
    },
    {
      "buffer": 0,
      "byteLength": 73144,
      "byteOffset": 2829732,
      "byteStride": 8,
      "name": "floatBufferViews",
      "target": 34962
    },
    {
      "buffer": 0,
      "byteLength": 2855928,
      "byteOffset": 2902876,
      "byteStride": 12,
      "name": "floatBufferViews",
      "target": 34962
    },
    {
      "buffer": 0,
      "byteLength": 38432,
      "byteOffset": 5758804,
      "byteStride": 16,
      "name": "floatBufferViews",
      "target": 34962
    }
  ],
  "buffers": [
    {
      "byteLength": 5797236,
      "uri": "scene.bin"
    }
  ],
  "images": [
    {
      "uri": "textures/material_2_baseColor.jpeg"
    },
    {
      "uri": "textures/material_3_baseColor.jpeg"
    },
    {
      "uri": "textures/material_4_baseColor.jpeg"
    }
  ],
  "materials": [
    {
      "doubleSided": true,
      "emissiveFactor": [
        0.5,
        0.5,
        0.5
      ],
      "name": "material_0",
      "pbrMetallicRoughness": {
        "baseColorFactor": [
          1,
          1,
          1,
          1
        ],
        "metallicFactor": 0,
        "roughnessFactor": 0.59999999999999998
      }
    },
    {
      "alphaMode": "BLEND",
      "doubleSided": true,
      "emissiveFactor": [
        0.20000000000000001,
        0.20000000000000001,
        0.20000000000000001
      ],
      "name": "material_1",
      "pbrMetallicRoughness": {
        "baseColorFactor": [
          1,
          1,
          1,
          0.51552795031055898
        ],
        "metallicFactor": 0,
        "roughnessFactor": 0.59999999999999998
      }
    },
    {
      "doubleSided": true,
      "emissiveFactor": [
        0.011220376243316536,
        0.17927587641735421,
        1
      ],
      "name": "material_2",
      "pbrMetallicRoughness": {
        "baseColorFactor": [
          1,
          1,
          1,
          1
        ],
        "baseColorTexture": {
          "index": 0,
          "texCoord": 0
        },
        "metallicFactor": 0,
        "roughnessFactor": 0.59999999999999998
      }
    },
    {
      "alphaMode": "BLEND",
      "doubleSided": true,
      "emissiveFactor": [
        0.27929442735141413,
        0.16713415113525501,
        0
      ],
      "name": "material_3",
      "pbrMetallicRoughness": {
        "baseColorFactor": [
          1,
          1,
          1,
          0.2360248447204969
        ],
        "baseColorTexture": {
          "index": 1,
          "texCoord": 0
        },
        "metallicFactor": 0,
        "roughnessFactor": 0.59999999999999998
      }
    },
    {
      "doubleSided": true,
      "emissiveFactor": [
        1,
        1,
        1
      ],
      "emissiveTexture": {
        "index": 2,
        "texCoord": 0
      },
      "name": "material_4",
      "pbrMetallicRoughness": {
        "baseColorFactor": [
          1,
          1,
          1,
          1
        ],
        "baseColorTexture": {
          "index": 2,
          "texCoord": 0
        },
        "metallicFactor": 0,
        "roughnessFactor": 0.59999999999999998
      }
    }
  ],
  "meshes": [
    {
      "primitives": [
        {
          "attributes": {
            "NORMAL": 1,
            "POSITION": 0,
            "TANGENT": 2,
            "TEXCOORD_0": 3
          },
          "indices": 4,
          "material": 4,
          "mode": 4
        }
      ]
    },
    {
      "primitives": [
        {
          "attributes": {
            "NORMAL": 6,
            "POSITION": 5,
            "TEXCOORD_0": 7
          },
          "indices": 8,
          "material": 3,
          "mode": 4
        }
      ]
    },
    {
      "primitives": [
        {
          "attributes": {
            "NORMAL": 10,
            "POSITION": 9,
            "TEXCOORD_0": 11
          },
          "indices": 12,
          "material": 2,
          "mode": 4
        }
      ]
    },
    {
      "primitives": [
        {
          "attributes": {
            "NORMAL": 14,
            "POSITION": 13
          },
          "indices": 15,
          "material": 1,
          "mode": 4
        }
      ]
    },
    {
      "primitives": [
        {
          "attributes": {
            "NORMAL": 17,
            "POSITION": 16
          },
          "indices": 18,
          "material": 0,
          "mode": 4
        }
      ]
    }
  ],
  "nodes": [
    {
      "children": [
        1
      ],
      "name": "RootNode (gltf orientation matrix)",
      "rotation": [
        -0.70710678118654746,
        -0,
        -0,
        0.70710678118654757
      ]
    },
    {
      "children": [
        2
      ],
      "matrix": [
        1,
        1.6081226229577292e-16,
        -1.2325951644078309e-32,
        0,
        1.2325951644078309e-32,
        -2.2204460492503131e-16,
        -1,
        0,
        -1.6081226229577292e-16,
        1,
        -2.2204460492503131e-16,
        0,
        -2.0816681711721685e-17,
        0.12724924087524414,
        -0.11653280258178711,
        1
      ],
      "name": "RootNode (model correction matrix)"
    },
    {
      "children": [
        3,
        5,
        7,
        9,
        11
      ],
      "name": "zbrush_concat.osgb.cleaner.materialmerger.gles"
    },
    {
      "children": [
        4
      ],
      "name": "/sketchfab-data/processing/models/5eb70f1b1921469d9e64c7d70a582c13/preprocess/star.obj"
    },
    {
      "mesh": 0,
      "name": ""
    },
    {
      "children": [
        6
      ],
      "name": "/sketchfab-data/processing/models/5eb70f1b1921469d9e64c7d70a582c13/preprocess/rhop_tseries_._64.obj"
    },
    {
      "mesh": 1,
      "name": ""
    },
    {
      "children": [
        8
      ],
      "name": "/sketchfab-data/processing/models/5eb70f1b1921469d9e64c7d70a582c13/preprocess/planet.obj"
    },
    {
      "mesh": 2,
      "name": ""
    },
    {
      "children": [
        10
      ],
      "name": "/sketchfab-data/processing/models/5eb70f1b1921469d9e64c7d70a582c13/preprocess/b2.obj"
    },
    {
      "mesh": 3,
      "name": ""
    },
    {
      "children": [
        12
      ],
      "name": "/sketchfab-data/processing/models/5eb70f1b1921469d9e64c7d70a582c13/preprocess/b1.obj"
    },
    {
      "mesh": 4,
      "name": ""
    }
  ],
  "samplers": [
    {
      "magFilter": 9729,
      "minFilter": 9987,
      "wrapS": 10497,
      "wrapT": 10497
    }
  ],
  "scene": 0,
  "scenes": [
    {
      "name": "OSG_Scene",
      "nodes": [
        0
      ]
    }
  ],
  "textures": [
    {
      "sampler": 0,
      "source": 0
    },
    {
      "sampler": 0,
      "source": 1
    },
    {
      "sampler": 0,
      "source": 2
    }
  ]
}

